# xmcd
# 
# Track frame offsets:
#     150
#     22369
#     40323
#     53479
#     70327
#     85132
#     104526
#     118260
#     130239
#     145130
# 
# Disc length: 2109
# 
# Revision: 1
# Processed by: cddbd v1.5.2PL0 Copyright (c) Steve Scherf et al.
# Submitted via: BonkEnc v1.0.8
# 
DISCID=92083b0a
DTITLE=矢藤健一郎 - ジャズアレンジ Vol 4
DYEAR=0
DGENRE=Jazz
TTITLE0=楽興の時 第3番
TTITLE1=舟唄
TTITLE2=スケーターズ・ワルツ
TTITLE3=シチリアーノ
TTITLE4=楽しき農夫
TTITLE5=小さなロマンス
TTITLE6=小さな狩の歌
TTITLE7=インヴェンション第一番
TTITLE8=タンブラン
TTITLE9=カヴォット
EXTD=
EXTT0=
EXTT1=
EXTT2=
EXTT3=
EXTT4=
EXTT5=
EXTT6=
EXTT7=
EXTT8=
EXTT9=
PLAYORDER=
